<svg width="16" height="16" viewBox="0 0 16 16" fill="none" xmlns="http://www.w3.org/2000/svg">
<path d="M2.5 1C2.83333 1 3 1.16667 3 1.5V14.5C3 14.8333 2.83333 15 2.5 15C2.16667 15 2 14.8333 2 14.5V1.5C2 1.16667 2.16667 1 2.5 1ZM9 6.547L11 6.3595V2.6405L9 2.453V6.547V6.547ZM8 6.625V2.375L5 2.0935V2.5H4V1L13.6405 1.875C14.0365 1.91667 14.3595 2.07817 14.6095 2.3595C14.8595 2.64083 14.9897 2.97933 15 3.375V5.625C14.9897 6.021 14.8595 6.3595 14.6095 6.6405C14.3595 6.9215 14.0365 7.083 13.6405 7.125L4 8V3.5H5V6.9065L8 6.625ZM12 6.2655L13.547 6.125C13.6823 6.11467 13.7917 6.0625 13.875 5.9685C13.9583 5.8745 14 5.75983 14 5.6245V3.3745C14 3.23917 13.9583 3.1245 13.875 3.0305C13.7917 2.9365 13.6823 2.88433 13.547 2.874L12 2.7335V6.265V6.2655Z" fill="black"/>
</svg>
