<svg width="24" height="24" viewBox="0 0 24 24" fill="none" xmlns="http://www.w3.org/2000/svg">
<path d="M10.75 9.81C12.4069 9.81 13.75 8.46686 13.75 6.81C13.75 5.15315 12.4069 3.81 10.75 3.81C9.09315 3.81 7.75 5.15315 7.75 6.81C7.75 8.46686 9.09315 9.81 10.75 9.81Z" stroke="#000D26" stroke-width="1.5" stroke-linecap="round" stroke-linejoin="round"/>
<path d="M3.25 20.19C3.25 18.2009 4.04018 16.2932 5.4467 14.8867C6.85322 13.4802 8.76088 12.69 10.75 12.69C12.7391 12.69 14.6468 13.4802 16.0533 14.8867C17.4598 16.2932 18.25 18.2009 18.25 20.19" stroke="#000D26" stroke-width="1.5" stroke-linecap="round" stroke-linejoin="round"/>
<path d="M17.72 12.5C18.6429 13.0898 19.4019 13.9032 19.9263 14.8647C20.4508 15.8263 20.7238 16.9047 20.72 18" stroke="#000D26" stroke-width="1.5" stroke-linecap="round" stroke-linejoin="round"/>
<path d="M15.65 4.31C16.3131 4.31 16.949 4.57339 17.4178 5.04223C17.8866 5.51108 18.15 6.14696 18.15 6.81C18.15 7.47304 17.8866 8.10893 17.4178 8.57777C16.949 9.04661 16.3131 9.31 15.65 9.31" stroke="#000D26" stroke-width="1.5" stroke-linecap="round" stroke-linejoin="round"/>
</svg>
