<svg width="24" height="24" viewBox="0 0 24 24" fill="none" xmlns="http://www.w3.org/2000/svg">
<path d="M18.1 5H5.9C4.29837 5 3 6.29837 3 7.9V16.1C3 17.7016 4.29837 19 5.9 19H18.1C19.7016 19 21 17.7016 21 16.1V7.9C21 6.29837 19.7016 5 18.1 5Z" stroke="#000D26" stroke-width="1.5" stroke-linecap="round" stroke-linejoin="round"/>
<path d="M17.25 9.75H21V14.25H17.25C16.6533 14.25 16.081 14.0129 15.659 13.591C15.2371 13.169 15 12.5967 15 12C15 11.4033 15.2371 10.831 15.659 10.409C16.081 9.98705 16.6533 9.75 17.25 9.75Z" stroke="#000D26" stroke-width="1.5" stroke-linecap="round" stroke-linejoin="round"/>
<path d="M7 9H10" stroke="#000D26" stroke-width="1.5" stroke-linecap="round" stroke-linejoin="round"/>
</svg>
