<svg width="20" height="18" viewBox="0 0 20 18" fill="none" xmlns="http://www.w3.org/2000/svg">
<path d="M14.74 1C14.1325 0.967541 13.5248 1.05859 12.9535 1.26764C12.3822 1.47669 11.8592 1.79941 11.4162 2.21629C10.9731 2.63316 10.6192 3.13554 10.3758 3.69307C10.1324 4.25059 10.0045 4.85168 10 5.46C9.99546 4.85168 9.86763 4.25059 9.62422 3.69307C9.38081 3.13554 9.02689 2.63316 8.58384 2.21629C8.14079 1.79941 7.61781 1.47669 7.04652 1.26764C6.47523 1.05859 5.86748 0.967541 5.26 1C4.0711 1.10893 2.9685 1.66717 2.17694 2.56092C1.38539 3.45467 0.964477 4.61665 1 5.81C1 13.56 7.35 16.28 9.38 17C9.7829 17.1314 10.2171 17.1314 10.62 17C12.62 16.33 18.97 13.61 19 5.86C19.0486 4.65818 18.6336 3.48364 17.8407 2.57913C17.0479 1.67462 15.9378 1.1093 14.74 1Z" stroke="#000D26" stroke-width="1.5" stroke-linecap="round" stroke-linejoin="round"/>
</svg>
