<svg width="24" height="24" viewBox="0 0 24 24" fill="none" xmlns="http://www.w3.org/2000/svg">
<path d="M16.74 4.00006C16.1325 3.9676 15.5248 4.05865 14.9535 4.2677C14.3822 4.47675 13.8592 4.79947 13.4162 5.21635C12.9731 5.63322 12.6192 6.13561 12.3758 6.69313C12.1324 7.25065 12.0045 7.85174 12 8.46006C11.9955 7.85174 11.8676 7.25065 11.6242 6.69313C11.3808 6.13561 11.0269 5.63322 10.5838 5.21635C10.1408 4.79947 9.61782 4.47675 9.04652 4.2677C8.47523 4.05865 7.86748 3.9676 7.26 4.00006C6.0711 4.109 4.9685 4.66723 4.17694 5.56098C3.38539 6.45473 2.96448 7.61671 3 8.81006C3 16.5601 9.35 19.2801 11.38 20.0001C11.7829 20.1314 12.2171 20.1314 12.62 20.0001C14.62 19.3301 20.97 16.6101 21 8.86006C21.0486 7.65824 20.6336 6.4837 19.8407 5.57919C19.0479 4.67469 17.9378 4.10936 16.74 4.00006Z" fill="#000D26"/>
</svg>
