<svg width="24" height="24" viewBox="0 0 24 24" fill="none" xmlns="http://www.w3.org/2000/svg">
<path d="M14.49 18.79C14.2163 19.2025 13.8448 19.541 13.4086 19.7751C12.9724 20.0092 12.485 20.1317 11.99 20.1317C11.4949 20.1317 11.0076 20.0092 10.5713 19.7751C10.1351 19.541 9.76364 19.2025 9.48999 18.79C5.48999 12.92 5.79999 10.08 5.79999 10.08C5.79999 8.44096 6.45109 6.86905 7.61007 5.71007C8.76904 4.5511 10.3409 3.89999 11.98 3.89999C13.619 3.89999 15.1909 4.5511 16.3499 5.71007C17.5089 6.86905 18.16 8.44096 18.16 10.08C18.16 10.08 18.53 12.92 14.49 18.79Z" stroke="#000D26" stroke-width="1.5" stroke-linecap="round" stroke-linejoin="round"/>
<path d="M12 12.07C13.1046 12.07 14 11.1746 14 10.07C14 8.96544 13.1046 8.07001 12 8.07001C10.8954 8.07001 10 8.96544 10 10.07C10 11.1746 10.8954 12.07 12 12.07Z" stroke="#000D26" stroke-width="1.5" stroke-linecap="round" stroke-linejoin="round"/>
</svg>
